<svg width="275" height="69" viewBox="0 0 275 69" fill="none" xmlns="http://www.w3.org/2000/svg">
<path d="M30 0C19.5472 0.000770088 10.7306 0.577412 9.41585 1.34642C7.11354 2.13068 5.38754 7.35742 5.38462 13.5535V16.6339H4.75631C4.68969 16.4891 4.60462 16.3588 4.50446 16.2482C4.77 15.9564 4.92246 15.5359 4.92308 15.0937V13.5535C4.92308 12.7029 4.372 12.0135 3.69231 12.0134H1.23077C0.551077 12.0135 0 12.7029 0 13.5535V15.0937C0.000307692 15.5364 0.152769 15.9573 0.418615 16.2495C0.153077 16.5413 0.000615385 16.9618 0 17.404V25.1049C0 25.9555 0.551077 26.6449 1.23077 26.645H3.69231C4.13138 26.6443 4.53708 26.3509 4.75662 25.8749H5.38462V39.7365C5.38585 40.2861 5.97215 40.7937 6.92308 41.0685V42.8671C5.56554 43.0425 4.61662 43.6552 4.61538 44.357V59.7588C4.61662 61.9574 5.20292 63.9881 6.15385 65.0875V67.7341C6.15385 68.4332 6.72 69 7.41831 69H12.5817C13.28 69 13.8462 68.4332 13.8462 67.7341V65.9195H46.1538V67.734C46.1538 68.4331 46.72 68.9998 47.4183 68.9998H52.5817C53.28 68.9998 53.8462 68.4331 53.8462 67.734V65.0853C54.7968 63.9864 55.3831 61.9566 55.3846 59.7588V44.357C55.3829 43.6555 54.434 43.0431 53.0769 42.8677V41.0682C54.0277 40.7934 54.6138 40.2859 54.6154 39.7365V25.8749H55.2434C55.4629 26.3509 55.8686 26.6443 56.3077 26.645H58.7692C59.4489 26.6449 60 25.9555 60 25.1049V17.404C59.9994 16.9618 59.8469 16.5413 59.5814 16.2495C59.8471 15.9573 59.9995 15.5364 60 15.0937V13.5535C60 12.7029 59.4489 12.0135 58.7692 12.0134H56.3077C55.628 12.0135 55.0769 12.7029 55.0769 13.5535V15.0937C55.0775 15.5359 55.23 15.9564 55.4955 16.2482C55.3954 16.3588 55.3105 16.4891 55.2437 16.6339H54.6152V13.5535C54.6132 7.32338 52.8697 2.07739 50.5528 1.33117C49.1449 0.569095 40.3717 0.000924105 30 0ZM8.89892 8.93302H11.3331H16.6369H43.3605H48.6666H51.0985C51.8332 8.93317 52.4655 9.45329 52.6078 10.175C52.9172 11.7445 53.0749 13.4396 53.0769 15.1589V15.1607V25.8749C53.0768 26.7256 52.3882 27.415 51.5385 27.4151H47.2308H12.7692H8.46154C7.61185 27.415 6.92323 26.7256 6.92308 25.8749V15.1609V15.1596C6.92415 13.4408 7.08092 11.7458 7.38938 10.1761C7.53123 9.45375 8.16369 8.93302 8.89892 8.93302ZM10.7691 42.8169H14.0657C14.4743 42.8167 14.8117 43.1365 14.834 43.5449L15.3832 53.556C15.4074 53.9972 15.0565 54.3682 14.6152 54.3682H10.7691C10.3443 54.3682 9.99985 54.0233 9.99985 53.5981V43.587C10 43.1617 10.3445 42.8169 10.7691 42.8169ZM45.9342 42.8169H49.2306C49.6554 42.8169 49.9998 43.1617 49.9998 43.587V53.5981C49.9998 54.0233 49.6554 54.3682 49.2306 54.3682H45.3845C44.9431 54.3682 44.5923 53.9972 44.6165 53.556L45.1657 43.5449C45.1882 43.1365 45.5255 42.8169 45.9342 42.8169ZM17.3075 44.6651H42.6922C42.9046 44.6651 43.0768 44.8374 43.0768 45.0501V45.5122C43.0768 45.7249 42.9046 45.8972 42.6922 45.8972H17.3075C17.0951 45.8972 16.9229 45.7249 16.9229 45.5122V45.0501C16.9231 44.8376 17.0952 44.6651 17.3075 44.6651ZM17.4614 47.4374H42.5383C42.7508 47.4374 42.9229 47.6097 42.9229 47.8224V48.2845C42.9229 48.4972 42.7508 48.6695 42.5383 48.6695H17.4614C17.2489 48.6695 17.0768 48.4972 17.0768 48.2845V47.8224C17.0769 47.6099 17.2491 47.4374 17.4614 47.4374ZM17.6152 50.2097H42.3845C42.5969 50.2097 42.7691 50.3821 42.7691 50.5948V51.0568C42.7691 51.2695 42.5969 51.4418 42.3845 51.4418H17.6152C17.4028 51.4418 17.2306 51.2695 17.2306 51.0568V50.5948C17.2308 50.3822 17.4029 50.2097 17.6152 50.2097ZM17.7691 52.982H42.2306C42.4431 52.982 42.6152 53.1544 42.6152 53.3671V53.8291C42.6152 54.0418 42.4431 54.2142 42.2306 54.2142H17.7691C17.5566 54.2142 17.3845 54.0418 17.3845 53.8291V53.3671C17.3846 53.1545 17.5568 52.982 17.7691 52.982Z" fill="white"/>
<path d="M30 0C19.5472 0.000770088 10.7306 0.577412 9.41585 1.34642C7.11354 2.13068 5.38754 7.35742 5.38462 13.5535V16.6339H4.75631C4.68969 16.4891 4.60462 16.3588 4.50446 16.2482C4.77 15.9564 4.92246 15.5359 4.92308 15.0937V13.5535C4.92308 12.7029 4.372 12.0135 3.69231 12.0134H1.23077C0.551077 12.0135 0 12.7029 0 13.5535V15.0937C0.000307692 15.5364 0.152769 15.9573 0.418615 16.2495C0.153077 16.5413 0.000615385 16.9618 0 17.404V25.1049C0 25.9555 0.551077 26.6449 1.23077 26.645H3.69231C4.13138 26.6443 4.53708 26.3509 4.75662 25.8749H5.38462V39.7365C5.38585 40.2861 5.97215 40.7937 6.92308 41.0685V42.8671C5.56554 43.0425 4.61662 43.6552 4.61538 44.357V59.7588C4.61662 61.9574 5.20292 63.9881 6.15385 65.0875V67.7341C6.15385 68.4332 6.72 69 7.41831 69H12.5817C13.28 69 13.8462 68.4332 13.8462 67.7341V65.9195H46.1538V67.734C46.1538 68.4331 46.72 68.9998 47.4183 68.9998H52.5817C53.28 68.9998 53.8462 68.4331 53.8462 67.734V65.0853C54.7968 63.9864 55.3831 61.9566 55.3846 59.7588V44.357C55.3829 43.6555 54.434 43.0431 53.0769 42.8677V41.0682C54.0277 40.7934 54.6138 40.2859 54.6154 39.7365V25.8749H55.2434C55.4629 26.3509 55.8686 26.6443 56.3077 26.645H58.7692C59.4489 26.6449 60 25.9555 60 25.1049V17.404C59.9994 16.9618 59.8469 16.5413 59.5814 16.2495C59.8471 15.9573 59.9995 15.5364 60 15.0937V13.5535C60 12.7029 59.4489 12.0135 58.7692 12.0134H56.3077C55.628 12.0135 55.0769 12.7029 55.0769 13.5535V15.0937C55.0775 15.5359 55.23 15.9564 55.4955 16.2482C55.3954 16.3588 55.3105 16.4891 55.2437 16.6339H54.6152V13.5535C54.6132 7.32338 52.8697 2.07739 50.5528 1.33117C49.1449 0.569095 40.3717 0.000924105 30 0ZM8.89892 8.93302H11.3331H16.6369H43.3605H48.6666H51.0985C51.8332 8.93317 52.4655 9.45329 52.6078 10.175C52.9172 11.7445 53.0749 13.4396 53.0769 15.1589V15.1607V25.8749C53.0768 26.7256 52.3882 27.415 51.5385 27.4151H47.2308H12.7692H8.46154C7.61185 27.415 6.92323 26.7256 6.92308 25.8749V15.1609V15.1596C6.92415 13.4408 7.08092 11.7458 7.38938 10.1761C7.53123 9.45375 8.16369 8.93302 8.89892 8.93302ZM10.7691 42.8169H14.0657C14.4743 42.8167 14.8117 43.1365 14.834 43.5449L15.3832 53.556C15.4074 53.9972 15.0565 54.3682 14.6152 54.3682H10.7691C10.3443 54.3682 9.99985 54.0233 9.99985 53.5981V43.587C10 43.1617 10.3445 42.8169 10.7691 42.8169ZM45.9342 42.8169H49.2306C49.6554 42.8169 49.9998 43.1617 49.9998 43.587V53.5981C49.9998 54.0233 49.6554 54.3682 49.2306 54.3682H45.3845C44.9431 54.3682 44.5923 53.9972 44.6165 53.556L45.1657 43.5449C45.1882 43.1365 45.5255 42.8169 45.9342 42.8169ZM17.3075 44.6651H42.6922C42.9046 44.6651 43.0768 44.8374 43.0768 45.0501V45.5122C43.0768 45.7249 42.9046 45.8972 42.6922 45.8972H17.3075C17.0951 45.8972 16.9229 45.7249 16.9229 45.5122V45.0501C16.9231 44.8376 17.0952 44.6651 17.3075 44.6651ZM17.4614 47.4374H42.5383C42.7508 47.4374 42.9229 47.6097 42.9229 47.8224V48.2845C42.9229 48.4972 42.7508 48.6695 42.5383 48.6695H17.4614C17.2489 48.6695 17.0768 48.4972 17.0768 48.2845V47.8224C17.0769 47.6099 17.2491 47.4374 17.4614 47.4374ZM17.6152 50.2097H42.3845C42.5969 50.2097 42.7691 50.3821 42.7691 50.5948V51.0568C42.7691 51.2695 42.5969 51.4418 42.3845 51.4418H17.6152C17.4028 51.4418 17.2306 51.2695 17.2306 51.0568V50.5948C17.2308 50.3822 17.4029 50.2097 17.6152 50.2097ZM17.7691 52.982H42.2306C42.4431 52.982 42.6152 53.1544 42.6152 53.3671V53.8291C42.6152 54.0418 42.4431 54.2142 42.2306 54.2142H17.7691C17.5566 54.2142 17.3845 54.0418 17.3845 53.8291V53.3671C17.3846 53.1545 17.5568 52.982 17.7691 52.982Z" fill="#FFD02C"/>
<path d="M30 0C19.5472 0.000770088 10.7306 0.577412 9.41585 1.34642C7.11354 2.13068 5.38754 7.35742 5.38462 13.5535V16.6339H4.75631C4.68969 16.4891 4.60462 16.3588 4.50446 16.2482C4.77 15.9564 4.92246 15.5359 4.92308 15.0937V13.5535C4.92308 12.7029 4.372 12.0135 3.69231 12.0134H1.23077C0.551077 12.0135 0 12.7029 0 13.5535V15.0937C0.000307692 15.5364 0.152769 15.9573 0.418615 16.2495C0.153077 16.5413 0.000615385 16.9618 0 17.404V25.1049C0 25.9555 0.551077 26.6449 1.23077 26.645H3.69231C4.13138 26.6443 4.53708 26.3509 4.75662 25.8749H5.38462V39.7365C5.38585 40.2861 5.97215 40.7937 6.92308 41.0685V42.8671C5.56554 43.0425 4.61662 43.6552 4.61538 44.357V59.7588C4.61662 61.9574 5.20292 63.9881 6.15385 65.0875V67.7341C6.15385 68.4332 6.72 69 7.41831 69H12.5817C13.28 69 13.8462 68.4332 13.8462 67.7341V65.9195H46.1538V67.734C46.1538 68.4331 46.72 68.9998 47.4183 68.9998H52.5817C53.28 68.9998 53.8462 68.4331 53.8462 67.734V65.0853C54.7968 63.9864 55.3831 61.9566 55.3846 59.7588V44.357C55.3829 43.6555 54.434 43.0431 53.0769 42.8677V41.0682C54.0277 40.7934 54.6138 40.2859 54.6154 39.7365V25.8749H55.2434C55.4629 26.3509 55.8686 26.6443 56.3077 26.645H58.7692C59.4489 26.6449 60 25.9555 60 25.1049V17.404C59.9994 16.9618 59.8469 16.5413 59.5814 16.2495C59.8471 15.9573 59.9995 15.5364 60 15.0937V13.5535C60 12.7029 59.4489 12.0135 58.7692 12.0134H56.3077C55.628 12.0135 55.0769 12.7029 55.0769 13.5535V15.0937C55.0775 15.5359 55.23 15.9564 55.4955 16.2482C55.3954 16.3588 55.3105 16.4891 55.2437 16.6339H54.6152V13.5535C54.6132 7.32338 52.8697 2.07739 50.5528 1.33117C49.1449 0.569095 40.3717 0.000924105 30 0ZM8.89892 8.93302H11.3331H16.6369H43.3605H48.6666H51.0985C51.8332 8.93317 52.4655 9.45329 52.6078 10.175C52.9172 11.7445 53.0749 13.4396 53.0769 15.1589V15.1607V25.8749C53.0768 26.7256 52.3882 27.415 51.5385 27.4151H47.2308H12.7692H8.46154C7.61185 27.415 6.92323 26.7256 6.92308 25.8749V15.1609V15.1596C6.92415 13.4408 7.08092 11.7458 7.38938 10.1761C7.53123 9.45375 8.16369 8.93302 8.89892 8.93302ZM10.7691 42.8169H14.0657C14.4743 42.8167 14.8117 43.1365 14.834 43.5449L15.3832 53.556C15.4074 53.9972 15.0565 54.3682 14.6152 54.3682H10.7691C10.3443 54.3682 9.99985 54.0233 9.99985 53.5981V43.587C10 43.1617 10.3445 42.8169 10.7691 42.8169ZM45.9342 42.8169H49.2306C49.6554 42.8169 49.9998 43.1617 49.9998 43.587V53.5981C49.9998 54.0233 49.6554 54.3682 49.2306 54.3682H45.3845C44.9431 54.3682 44.5923 53.9972 44.6165 53.556L45.1657 43.5449C45.1882 43.1365 45.5255 42.8169 45.9342 42.8169ZM17.3075 44.6651H42.6922C42.9046 44.6651 43.0768 44.8374 43.0768 45.0501V45.5122C43.0768 45.7249 42.9046 45.8972 42.6922 45.8972H17.3075C17.0951 45.8972 16.9229 45.7249 16.9229 45.5122V45.0501C16.9231 44.8376 17.0952 44.6651 17.3075 44.6651ZM17.4614 47.4374H42.5383C42.7508 47.4374 42.9229 47.6097 42.9229 47.8224V48.2845C42.9229 48.4972 42.7508 48.6695 42.5383 48.6695H17.4614C17.2489 48.6695 17.0768 48.4972 17.0768 48.2845V47.8224C17.0769 47.6099 17.2491 47.4374 17.4614 47.4374ZM17.6152 50.2097H42.3845C42.5969 50.2097 42.7691 50.3821 42.7691 50.5948V51.0568C42.7691 51.2695 42.5969 51.4418 42.3845 51.4418H17.6152C17.4028 51.4418 17.2306 51.2695 17.2306 51.0568V50.5948C17.2308 50.3822 17.4029 50.2097 17.6152 50.2097ZM17.7691 52.982H42.2306C42.4431 52.982 42.6152 53.1544 42.6152 53.3671V53.8291C42.6152 54.0418 42.4431 54.2142 42.2306 54.2142H17.7691C17.5566 54.2142 17.3845 54.0418 17.3845 53.8291V53.3671C17.3846 53.1545 17.5568 52.982 17.7691 52.982Z" fill="url(#paint0_linear_38133_3880)"/>
<path d="M77.262 28V9.8H90.106L90.08 13.232H80.46L81.422 12.27L81.448 28H77.262ZM99.1822 28.208C98.0036 28.208 96.9722 27.948 96.0882 27.428C95.2042 26.908 94.5109 26.1193 94.0082 25.062C93.5229 23.9873 93.2802 22.6353 93.2802 21.006C93.2802 19.3593 93.5142 18.0073 93.9822 16.95C94.4502 15.8927 95.1262 15.104 96.0102 14.584C96.8942 14.064 97.9516 13.804 99.1822 13.804C100.5 13.804 101.678 14.1073 102.718 14.714C103.776 15.3033 104.608 16.1353 105.214 17.21C105.838 18.2847 106.15 19.55 106.15 21.006C106.15 22.4793 105.838 23.7533 105.214 24.828C104.608 25.9027 103.776 26.7347 102.718 27.324C101.678 27.9133 100.5 28.208 99.1822 28.208ZM90.9142 33.044V14.012H94.7882V16.872L94.7102 21.032L94.9702 25.166V33.044H90.9142ZM98.4802 24.88C99.1562 24.88 99.7542 24.724 100.274 24.412C100.812 24.1 101.236 23.658 101.548 23.086C101.878 22.4967 102.042 21.8033 102.042 21.006C102.042 20.1913 101.878 19.498 101.548 18.926C101.236 18.354 100.812 17.912 100.274 17.6C99.7542 17.288 99.1562 17.132 98.4802 17.132C97.8042 17.132 97.1976 17.288 96.6602 17.6C96.1229 17.912 95.6982 18.354 95.3862 18.926C95.0742 19.498 94.9182 20.1913 94.9182 21.006C94.9182 21.8033 95.0742 22.4967 95.3862 23.086C95.6982 23.658 96.1229 24.1 96.6602 24.412C97.1976 24.724 97.8042 24.88 98.4802 24.88ZM110.51 33.252C109.782 33.252 109.063 33.1393 108.352 32.914C107.641 32.6887 107.061 32.3767 106.61 31.978L108.092 29.092C108.404 29.3693 108.759 29.586 109.158 29.742C109.574 29.898 109.981 29.976 110.38 29.976C110.952 29.976 111.403 29.8373 111.732 29.56C112.079 29.3 112.391 28.858 112.668 28.234L113.396 26.518L113.708 26.076L118.726 14.012H122.626L116.308 28.858C115.857 29.9847 115.337 30.8687 114.748 31.51C114.176 32.1513 113.535 32.602 112.824 32.862C112.131 33.122 111.359 33.252 110.51 33.252ZM112.902 28.546L106.662 14.012H110.848L115.684 25.712L112.902 28.546ZM129.01 28.26C130.327 28.26 131.506 28.0867 132.546 27.74C133.603 27.376 134.435 26.8647 135.042 26.206C135.666 25.53 135.978 24.7413 135.978 23.84C135.978 22.7827 135.536 21.9507 134.652 21.344C133.768 20.72 132.555 20.408 131.012 20.408L130.908 21.214C131.792 21.214 132.589 21.0667 133.3 20.772C134.011 20.46 134.565 20.0353 134.964 19.498C135.38 18.9607 135.588 18.354 135.588 17.678C135.588 16.8287 135.285 16.1093 134.678 15.52C134.089 14.9307 133.274 14.48 132.234 14.168C131.194 13.856 130.024 13.7173 128.724 13.752C127.84 13.7693 126.947 13.8907 126.046 14.116C125.145 14.3413 124.235 14.6447 123.316 15.026L124.304 17.834C125.084 17.522 125.847 17.288 126.592 17.132C127.337 16.9587 128.057 16.872 128.75 16.872C129.357 16.872 129.859 16.9327 130.258 17.054C130.657 17.158 130.96 17.314 131.168 17.522C131.376 17.73 131.48 17.9813 131.48 18.276C131.48 18.5533 131.393 18.796 131.22 19.004C131.064 19.1947 130.821 19.342 130.492 19.446C130.163 19.55 129.764 19.602 129.296 19.602H126.774V22.124H129.634C130.362 22.124 130.917 22.2453 131.298 22.488C131.679 22.7133 131.87 23.0513 131.87 23.502C131.87 23.8487 131.749 24.1433 131.506 24.386C131.263 24.6287 130.908 24.8193 130.44 24.958C129.989 25.0793 129.452 25.14 128.828 25.14C127.961 25.14 127.103 25.0533 126.254 24.88C125.422 24.6893 124.651 24.4207 123.94 24.074L122.848 26.908C123.749 27.3587 124.729 27.6967 125.786 27.922C126.861 28.1473 127.935 28.26 129.01 28.26ZM145.43 28.208C143.939 28.208 142.613 27.896 141.452 27.272C140.308 26.648 139.398 25.7987 138.722 24.724C138.063 23.632 137.734 22.3927 137.734 21.006C137.734 19.602 138.063 18.3627 138.722 17.288C139.398 16.196 140.308 15.3467 141.452 14.74C142.613 14.116 143.939 13.804 145.43 13.804C146.903 13.804 148.22 14.116 149.382 14.74C150.543 15.3467 151.453 16.1873 152.112 17.262C152.77 18.3367 153.1 19.5847 153.1 21.006C153.1 22.3927 152.77 23.632 152.112 24.724C151.453 25.7987 150.543 26.648 149.382 27.272C148.22 27.896 146.903 28.208 145.43 28.208ZM145.43 24.88C146.106 24.88 146.712 24.724 147.25 24.412C147.787 24.1 148.212 23.658 148.524 23.086C148.836 22.4967 148.992 21.8033 148.992 21.006C148.992 20.1913 148.836 19.498 148.524 18.926C148.212 18.354 147.787 17.912 147.25 17.6C146.712 17.288 146.106 17.132 145.43 17.132C144.754 17.132 144.147 17.288 143.61 17.6C143.072 17.912 142.639 18.354 142.31 18.926C141.998 19.498 141.842 20.1913 141.842 21.006C141.842 21.8033 141.998 22.4967 142.31 23.086C142.639 23.658 143.072 24.1 143.61 24.412C144.147 24.724 144.754 24.88 145.43 24.88ZM155.889 28V14.012H163.039C164.79 14.012 166.159 14.3327 167.147 14.974C168.135 15.598 168.629 16.482 168.629 17.626C168.629 18.77 168.161 19.6713 167.225 20.33C166.307 20.9713 165.085 21.292 163.559 21.292L163.975 20.356C165.674 20.356 166.939 20.668 167.771 21.292C168.621 21.916 169.045 22.826 169.045 24.022C169.045 25.2527 168.577 26.2233 167.641 26.934C166.705 27.6447 165.275 28 163.351 28H155.889ZM159.607 25.244H163.013C163.759 25.244 164.313 25.1227 164.677 24.88C165.059 24.62 165.249 24.23 165.249 23.71C165.249 23.1727 165.076 22.7827 164.729 22.54C164.383 22.28 163.837 22.15 163.091 22.15H159.607V25.244ZM159.607 19.758H162.675C163.386 19.758 163.915 19.628 164.261 19.368C164.625 19.108 164.807 18.7353 164.807 18.25C164.807 17.7473 164.625 17.3747 164.261 17.132C163.915 16.8893 163.386 16.768 162.675 16.768H159.607V19.758ZM178.615 28.208C177.125 28.208 175.799 27.896 174.637 27.272C173.493 26.648 172.583 25.7987 171.907 24.724C171.249 23.632 170.919 22.3927 170.919 21.006C170.919 19.602 171.249 18.3627 171.907 17.288C172.583 16.196 173.493 15.3467 174.637 14.74C175.799 14.116 177.125 13.804 178.615 13.804C180.089 13.804 181.406 14.116 182.567 14.74C183.729 15.3467 184.639 16.1873 185.297 17.262C185.956 18.3367 186.285 19.5847 186.285 21.006C186.285 22.3927 185.956 23.632 185.297 24.724C184.639 25.7987 183.729 26.648 182.567 27.272C181.406 27.896 180.089 28.208 178.615 28.208ZM178.615 24.88C179.291 24.88 179.898 24.724 180.435 24.412C180.973 24.1 181.397 23.658 181.709 23.086C182.021 22.4967 182.177 21.8033 182.177 21.006C182.177 20.1913 182.021 19.498 181.709 18.926C181.397 18.354 180.973 17.912 180.435 17.6C179.898 17.288 179.291 17.132 178.615 17.132C177.939 17.132 177.333 17.288 176.795 17.6C176.258 17.912 175.825 18.354 175.495 18.926C175.183 19.498 175.027 20.1913 175.027 21.006C175.027 21.8033 175.183 22.4967 175.495 23.086C175.825 23.658 176.258 24.1 176.795 24.412C177.333 24.724 177.939 24.88 178.615 24.88ZM189.075 28V14.012H193.105V22.332L199.917 14.012H203.635V28H199.605V19.68L192.819 28H189.075ZM196.095 12.504C194.57 12.504 193.426 12.1747 192.663 11.516C191.9 10.84 191.51 9.826 191.493 8.474H194.145C194.162 9.06333 194.327 9.53133 194.639 9.878C194.951 10.2247 195.428 10.398 196.069 10.398C196.693 10.398 197.17 10.2247 197.499 9.878C197.846 9.53133 198.019 9.06333 198.019 8.474H200.723C200.723 9.826 200.333 10.84 199.553 11.516C198.773 12.1747 197.62 12.504 196.095 12.504ZM75.208 61L83.32 42.8H87.48L95.618 61H91.198L84.542 44.932H86.206L79.524 61H75.208ZM79.264 57.1L80.382 53.902H89.742L90.886 57.1H79.264ZM97.7195 61V47.012H104.87C106.62 47.012 107.99 47.3327 108.978 47.974C109.966 48.598 110.46 49.482 110.46 50.626C110.46 51.77 109.992 52.6713 109.056 53.33C108.137 53.9713 106.915 54.292 105.39 54.292L105.806 53.356C107.504 53.356 108.77 53.668 109.602 54.292C110.451 54.916 110.876 55.826 110.876 57.022C110.876 58.2527 110.408 59.2233 109.472 59.934C108.536 60.6447 107.106 61 105.182 61H97.7195ZM101.438 58.244H104.844C105.589 58.244 106.144 58.1227 106.508 57.88C106.889 57.62 107.08 57.23 107.08 56.71C107.08 56.1727 106.906 55.7827 106.56 55.54C106.213 55.28 105.667 55.15 104.922 55.15H101.438V58.244ZM101.438 52.758H104.506C105.216 52.758 105.745 52.628 106.092 52.368C106.456 52.108 106.638 51.7353 106.638 51.25C106.638 50.7473 106.456 50.3747 106.092 50.132C105.745 49.8893 105.216 49.768 104.506 49.768H101.438V52.758ZM116.883 61V49.404L117.793 50.34H112.151V47.012H125.645V50.34H120.003L120.913 49.404V61H116.883ZM133.775 61.208C132.285 61.208 130.959 60.896 129.797 60.272C128.653 59.648 127.743 58.7987 127.067 57.724C126.409 56.632 126.079 55.3927 126.079 54.006C126.079 52.602 126.409 51.3627 127.067 50.288C127.743 49.196 128.653 48.3467 129.797 47.74C130.959 47.116 132.285 46.804 133.775 46.804C135.249 46.804 136.566 47.116 137.727 47.74C138.889 48.3467 139.799 49.1873 140.457 50.262C141.116 51.3367 141.445 52.5847 141.445 54.006C141.445 55.3927 141.116 56.632 140.457 57.724C139.799 58.7987 138.889 59.648 137.727 60.272C136.566 60.896 135.249 61.208 133.775 61.208ZM133.775 57.88C134.451 57.88 135.058 57.724 135.595 57.412C136.133 57.1 136.557 56.658 136.869 56.086C137.181 55.4967 137.337 54.8033 137.337 54.006C137.337 53.1913 137.181 52.498 136.869 51.926C136.557 51.354 136.133 50.912 135.595 50.6C135.058 50.288 134.451 50.132 133.775 50.132C133.099 50.132 132.493 50.288 131.955 50.6C131.418 50.912 130.985 51.354 130.655 51.926C130.343 52.498 130.187 53.1913 130.187 54.006C130.187 54.8033 130.343 55.4967 130.655 56.086C130.985 56.658 131.418 57.1 131.955 57.412C132.493 57.724 133.099 57.88 133.775 57.88ZM146.763 55.332V52.55H154.069V55.332H146.763ZM148.713 46.752C150.239 46.752 151.591 47.064 152.769 47.688C153.948 48.2947 154.875 49.144 155.551 50.236C156.227 51.328 156.565 52.5847 156.565 54.006C156.565 55.41 156.227 56.6667 155.551 57.776C154.875 58.868 153.948 59.726 152.769 60.35C151.591 60.9567 150.239 61.26 148.713 61.26C147.379 61.26 146.165 61.0433 145.073 60.61C143.999 60.1593 143.106 59.518 142.395 58.686L144.709 56.502C145.229 57.022 145.801 57.4293 146.425 57.724C147.067 58.0013 147.777 58.14 148.557 58.14C149.407 58.14 150.143 57.9667 150.767 57.62C151.409 57.2733 151.911 56.788 152.275 56.164C152.639 55.54 152.821 54.8207 152.821 54.006C152.821 53.174 152.639 52.446 152.275 51.822C151.911 51.198 151.409 50.7127 150.767 50.366C150.143 50.0193 149.407 49.846 148.557 49.846C147.777 49.846 147.067 49.9933 146.425 50.288C145.801 50.5653 145.229 50.9727 144.709 51.51L142.395 49.352C143.106 48.5027 143.999 47.8613 145.073 47.428C146.165 46.9773 147.379 46.752 148.713 46.752ZM157.346 60.974L157.554 57.646C157.658 57.6633 157.762 57.6807 157.866 57.698C157.97 57.698 158.065 57.698 158.152 57.698C158.637 57.698 159.019 57.5593 159.296 57.282C159.573 57.0047 159.781 56.632 159.92 56.164C160.059 55.6787 160.154 55.1327 160.206 54.526C160.275 53.9193 160.327 53.2867 160.362 52.628L160.57 47.012H172.53V61H168.474V49.352L169.384 50.34H163.248L164.106 49.3L163.924 52.81C163.872 54.058 163.768 55.202 163.612 56.242C163.473 57.282 163.239 58.1833 162.91 58.946C162.581 59.6913 162.139 60.272 161.584 60.688C161.029 61.0867 160.319 61.286 159.452 61.286C159.14 61.286 158.811 61.26 158.464 61.208C158.117 61.156 157.745 61.078 157.346 60.974ZM183.268 61.208C181.674 61.208 180.27 60.896 179.056 60.272C177.86 59.648 176.933 58.7987 176.274 57.724C175.616 56.632 175.286 55.3927 175.286 54.006C175.286 52.602 175.607 51.3627 176.248 50.288C176.907 49.196 177.8 48.3467 178.926 47.74C180.053 47.116 181.327 46.804 182.748 46.804C184.118 46.804 185.348 47.0987 186.44 47.688C187.55 48.26 188.425 49.092 189.066 50.184C189.708 51.2587 190.028 52.55 190.028 54.058C190.028 54.214 190.02 54.396 190.002 54.604C189.985 54.7947 189.968 54.9767 189.95 55.15H178.588V52.784H187.818L186.258 53.486C186.258 52.758 186.111 52.1253 185.816 51.588C185.522 51.0507 185.114 50.6347 184.594 50.34C184.074 50.028 183.468 49.872 182.774 49.872C182.081 49.872 181.466 50.028 180.928 50.34C180.408 50.6347 180.001 51.0593 179.706 51.614C179.412 52.1513 179.264 52.7927 179.264 53.538V54.162C179.264 54.9247 179.429 55.6007 179.758 56.19C180.105 56.762 180.582 57.204 181.188 57.516C181.812 57.8107 182.54 57.958 183.372 57.958C184.118 57.958 184.768 57.8453 185.322 57.62C185.894 57.3947 186.414 57.0567 186.882 56.606L189.04 58.946C188.399 59.674 187.593 60.2373 186.622 60.636C185.652 61.0173 184.534 61.208 183.268 61.208ZM203.044 61L198.364 54.37L201.666 52.42L207.828 61H203.044ZM193.138 61V47.012H197.194V61H193.138ZM195.998 55.696V52.446H200.886V55.696H195.998ZM202.056 54.474L198.26 54.058L203.174 47.012H207.49L202.056 54.474ZM212.682 61V49.404L213.592 50.34H207.95V47.012H221.444V50.34H215.802L216.712 49.404V61H212.682ZM231.848 61.208C230.67 61.208 229.638 60.948 228.754 60.428C227.87 59.908 227.177 59.1193 226.674 58.062C226.189 56.9873 225.946 55.6353 225.946 54.006C225.946 52.3593 226.18 51.0073 226.648 49.95C227.116 48.8927 227.792 48.104 228.676 47.584C229.56 47.064 230.618 46.804 231.848 46.804C233.166 46.804 234.344 47.1073 235.384 47.714C236.442 48.3033 237.274 49.1353 237.88 50.21C238.504 51.2847 238.816 52.55 238.816 54.006C238.816 55.4793 238.504 56.7533 237.88 57.828C237.274 58.9027 236.442 59.7347 235.384 60.324C234.344 60.9133 233.166 61.208 231.848 61.208ZM223.58 66.044V47.012H227.454V49.872L227.376 54.032L227.636 58.166V66.044H223.58ZM231.146 57.88C231.822 57.88 232.42 57.724 232.94 57.412C233.478 57.1 233.902 56.658 234.214 56.086C234.544 55.4967 234.708 54.8033 234.708 54.006C234.708 53.1913 234.544 52.498 234.214 51.926C233.902 51.354 233.478 50.912 232.94 50.6C232.42 50.288 231.822 50.132 231.146 50.132C230.47 50.132 229.864 50.288 229.326 50.6C228.789 50.912 228.364 51.354 228.052 51.926C227.74 52.498 227.584 53.1913 227.584 54.006C227.584 54.8033 227.74 55.4967 228.052 56.086C228.364 56.658 228.789 57.1 229.326 57.412C229.864 57.724 230.47 57.88 231.146 57.88ZM241.659 61V47.012H245.689V55.332L252.501 47.012H256.219V61H252.189V52.68L245.403 61H241.659ZM270.024 61L265.344 54.37L268.646 52.42L274.808 61H270.024ZM260.118 61V47.012H264.174V61H260.118ZM262.978 55.696V52.446H267.866V55.696H262.978ZM269.036 54.474L265.24 54.058L270.154 47.012H274.47L269.036 54.474Z" fill="white"/>
<defs>
<linearGradient id="paint0_linear_38133_3880" x1="60" y1="0" x2="2.58833e-06" y2="69" gradientUnits="userSpaceOnUse">
<stop stop-color="#FF782C"/>
<stop offset="1" stop-color="#FFD02C"/>
</linearGradient>
</defs>
</svg>
