<?xml version="1.0" standalone="no"?>
<!DOCTYPE svg PUBLIC "-//W3C//DTD SVG 20010904//EN"
 "http://www.w3.org/TR/2001/REC-SVG-20010904/DTD/svg10.dtd">
<svg version="1.0" xmlns="http://www.w3.org/2000/svg"
 width="203.000000pt" height="203.000000pt" viewBox="0 0 203.000000 203.000000"
 preserveAspectRatio="xMidYMid meet">
<metadata>
Created by potrace 1.14, written by Peter Selinger 2001-2017
</metadata>
<g transform="translate(0.000000,203.000000) scale(0.100000,-0.100000)"
fill="#000000" stroke="none">
<path d="M0 1020 l0 -1010 1015 0 1015 0 0 1010 0 1010 -1015 0 -1015 0 0
-1010z m1201 904 c171 -32 357 -132 475 -256 173 -180 260 -404 257 -658 -3
-256 -93 -469 -269 -642 -115 -113 -206 -169 -350 -217 -540 -180 -1108 156
-1205 713 -19 110 -7 312 25 419 99 332 354 567 697 642 88 19 269 18 370 -1z"/>
<path d="M880 1614 c-100 -9 -111 -13 -126 -49 -8 -19 -14 -47 -14 -63 0 -26
-3 -28 -29 -24 -35 5 -38 -3 -33 -95 4 -73 4 -73 32 -73 l29 0 3 -87 c2 -49 0
-92 -4 -97 -13 -16 -9 -213 4 -256 12 -38 15 -40 55 -40 32 0 43 4 43 15 0 13
27 15 180 15 153 0 180 -2 180 -15 0 -11 11 -15 43 -15 40 0 43 2 55 40 13 43
17 240 4 256 -4 5 -6 48 -4 97 l3 87 29 0 28 0 4 76 c2 42 0 81 -3 86 -4 6
-19 8 -33 6 -23 -5 -26 -2 -26 24 0 42 -28 95 -53 102 -29 7 -309 15 -367 10z
m395 -127 c3 -12 5 -58 3 -102 l-3 -80 -255 0 -255 0 -3 80 c-2 44 0 90 3 102
l5 23 250 0 250 0 5 -23z m-427 -429 c3 -56 2 -58 -23 -58 -24 0 -25 2 -25 61
0 57 1 60 23 57 19 -3 22 -10 25 -60z m392 2 c0 -57 -1 -60 -25 -60 -24 0 -25
3 -25 53 0 58 4 67 32 67 15 0 18 -8 18 -60z m-147 33 c-40 -2 -106 -2 -145 0
-40 1 -8 3 72 3 80 0 112 -2 73 -3z m0 -30 c-40 -2 -106 -2 -145 0 -40 1 -8 3
72 3 80 0 112 -2 73 -3z m0 -30 c-40 -2 -106 -2 -145 0 -40 1 -8 3 72 3 80 0
112 -2 73 -3z m0 -30 c-40 -2 -106 -2 -145 0 -40 1 -8 3 72 3 80 0 112 -2 73
-3z"/>
<path d="M525 656 c-22 -7 -55 -20 -72 -30 -33 -16 -33 -17 -33 -92 0 -66 3
-78 24 -99 53 -53 199 -63 292 -21 68 31 79 32 144 6 28 -11 56 -18 61 -15 5
4 9 58 9 121 0 134 -2 136 -80 103 -46 -20 -56 -21 -84 -10 -135 54 -184 61
-261 37z"/>
<path d="M990 525 l0 -75 41 0 c32 0 42 4 46 20 5 19 14 20 148 20 102 0 155
-4 186 -15 39 -14 48 -14 96 1 50 16 53 19 53 50 0 29 -4 34 -46 50 -39 15
-53 16 -90 6 -25 -7 -110 -12 -193 -12 -123 0 -150 3 -155 15 -3 10 -19 15
-46 15 l-40 0 0 -75z"/>
</g>
</svg>
